<?xml version="1.0" encoding="UTF-8"?>
<!-- Created with Inkscape (http://www.inkscape.org/) -->
<svg width="52.773mm" height="11.824mm" version="1.1" viewBox="0 0 52.773 11.824" xmlns="http://www.w3.org/2000/svg" xmlns:cc="http://creativecommons.org/ns#" xmlns:dc="http://purl.org/dc/elements/1.1/" xmlns:rdf="http://www.w3.org/1999/02/22-rdf-syntax-ns#">
 <metadata>
  <rdf:RDF>
   <cc:Work rdf:about="">
    <dc:format>image/svg+xml</dc:format>
    <dc:type rdf:resource="http://purl.org/dc/dcmitype/StillImage"/>
    <dc:title/>
   </cc:Work>
  </rdf:RDF>
 </metadata>
 <g transform="translate(-70.187 -115.05)">
  <g>
   <g fill="#ffe667" stroke-width=".26458" aria-label="Mi  Dnight">
    <path d="m72.187 124.64v-7.5758h2.2893l1.3746 5.1676 1.3591-5.1676h2.2944v7.5758h-1.4211v-5.9635l-1.5038 5.9635h-1.4728l-1.4986-5.9635v5.9635z"/>
    <path d="m81.023 118.41v-1.3436h1.4521v1.3436zm0 6.2322v-5.488h1.4521v5.488z"/>
    <path d="m88.337 117.07h2.7957q0.94568 0 1.4418 0.14469 0.66663 0.19637 1.142 0.69763 0.47542 0.50127 0.72347 1.2299 0.24805 0.72347 0.24805 1.788 0 0.93534-0.23254 1.6123-0.28422 0.82682-0.81132 1.3384-0.39791 0.38757-1.0749 0.60462-0.50643 0.16019-1.3539 0.16019h-2.8784zm1.5296 1.2816v5.0178h1.142q0.64079 0 0.92501-0.0723 0.37207-0.093 0.61495-0.31523 0.24805-0.22221 0.40308-0.72864 0.15503-0.51159 0.15503-1.3901t-0.15503-1.3488q-0.15503-0.47025-0.43408-0.7338t-0.70797-0.35657q-0.32039-0.0724-1.2557-0.0724z"/>
    <path d="m100.97 124.64h-1.4521v-2.8009q0-0.88883-0.09302-1.1472-0.09302-0.26355-0.30489-0.40824-0.2067-0.14469-0.50126-0.14469-0.37724 0-0.67696 0.2067-0.29972 0.20671-0.41341 0.54777-0.10852 0.34107-0.10852 1.2609v2.4856h-1.4521v-5.488h1.3488v0.80615q0.7183-0.93018 1.8087-0.93018 0.48059 0 0.87851 0.1757 0.3979 0.17053 0.59944 0.43925 0.20671 0.26872 0.28422 0.60978 0.0827 0.34107 0.0827 0.97669z"/>
    <path d="m102.45 118.41v-1.3436h1.4521v1.3436zm0 6.2322v-5.488h1.4521v5.488z"/>
    <path d="m105.25 125 1.6588 0.20154q0.0413 0.28938 0.1912 0.3979 0.20671 0.15503 0.65112 0.15503 0.56844 0 0.85266-0.17053 0.19121-0.11369 0.28939-0.3669 0.0672-0.18087 0.0672-0.66663v-0.80098q-0.65112 0.88883-1.6433 0.88883-1.1059 0-1.7518-0.93534-0.50643-0.73897-0.50643-1.8397 0-1.3798 0.66146-2.1084 0.66663-0.72864 1.6536-0.72864 1.018 0 1.6795 0.894v-0.76997h1.3591v4.9248q0 0.97152-0.1602 1.4521-0.16019 0.48059-0.44958 0.75447-0.28939 0.27389-0.77515 0.42892-0.48059 0.15503-1.2196 0.15503-1.3953 0-1.9792-0.48059-0.58394-0.47543-0.58394-1.2092 0-0.0724 5e-3 -0.1757zm1.2971-3.2194q0 0.87333 0.3359 1.2816 0.34106 0.40308 0.83716 0.40308 0.53226 0 0.89917-0.41341 0.3669-0.41858 0.3669-1.2351 0-0.85266-0.3514-1.2661t-0.88883-0.41341q-0.52194 0-0.863 0.40824-0.3359 0.40308-0.3359 1.2351z"/>
    <path d="m113.3 117.07v2.7854q0.7028-0.82166 1.6795-0.82166 0.50127 0 0.90434 0.18604 0.40308 0.18603 0.60462 0.47542 0.2067 0.28939 0.27905 0.64079 0.0775 0.3514 0.0775 1.0904v3.2194h-1.4521v-2.899q0-0.863-0.0827-1.0956-0.0827-0.23254-0.29455-0.3669-0.20671-0.13952-0.52193-0.13952-0.36174 0-0.64596 0.1757t-0.41858 0.53226q-0.12919 0.3514-0.12919 1.0439v2.7492h-1.4521v-7.5758z"/>
    <path d="m120.84 119.15v1.1576h-0.99219v2.2118q0 0.67179 0.0258 0.78548 0.031 0.10852 0.12919 0.18087 0.10336 0.0724 0.24805 0.0724 0.20154 0 0.58394-0.13953l0.12403 1.1266q-0.50643 0.21704-1.1472 0.21704-0.39274 0-0.70797-0.12919-0.31522-0.13436-0.46508-0.34107-0.1447-0.21187-0.20154-0.56844-0.0465-0.25321-0.0465-1.0232v-2.3926h-0.66663v-1.1576h0.66663v-1.0904l1.4573-0.84749v1.9379z"/>
   </g>
   <g transform="matrix(.98484 0 0 .98484 1.7387 1.8891)">
    <path transform="rotate(90)" d="m124.64-87.939a3.8575 4.7065 0 0 1-1.9288 4.0759 3.8575 4.7065 0 0 1-3.8575 0 3.8575 4.7065 0 0 1-1.9287-4.0759h3.8575z" fill="#580880" stroke-width=".28357"/>
    <g fill="#fea">
     <ellipse cx="86.546" cy="118.25" rx=".68079" ry=".62522" stroke-width=".18961"/>
     <ellipse cx="84.791" cy="119.68" rx=".80812" ry=".74215" stroke-width=".22507"/>
     <ellipse cx="86.632" cy="119.8" rx=".36081" ry=".33136" stroke-width=".10049"/>
     <ellipse cx="85.451" cy="122.93" rx=".26894" ry=".24699" stroke-width=".074903"/>
     <ellipse cx="86.946" cy="121.35" rx=".39422" ry=".36204" stroke-width=".1098"/>
     <ellipse cx="87.071" cy="123.41" rx=".56962" ry=".52312" stroke-width=".15865"/>
     <ellipse cx="85.347" cy="121.37" rx=".44879" ry=".41215" stroke-width=".12499"/>
    </g>
   </g>
  </g>
 </g>
</svg>
